<mxfile host="app.diagrams.net" modified="2024-06-19T10:09:39.650Z" agent="Mozilla/5.0 (Windows NT 10.0; Win64; x64) AppleWebKit/537.36 (KHTML, like Gecko) Chrome/126.0.0.0 Safari/537.36 Edg/126.0.0.0" etag="qVSVdq2d-1alDtkCB37D" version="24.5.5" type="device">
  <diagram name="Page-1" id="n_fTTJUvvp15woAUdu2H">
    <mxGraphModel dx="1041" dy="583" grid="1" gridSize="10" guides="1" tooltips="1" connect="1" arrows="1" fold="1" page="1" pageScale="1" pageWidth="850" pageHeight="1100" math="0" shadow="0">
      <root>
        <mxCell id="0" />
        <mxCell id="1" parent="0" />
        <mxCell id="Kk266i6ZGJZ_S-X6U024-3" value="" style="rounded=0;whiteSpace=wrap;html=1;fillColor=none;" vertex="1" parent="1">
          <mxGeometry x="180" y="90" width="350" height="380" as="geometry" />
        </mxCell>
        <mxCell id="6ljYarA6fhvYLS2b_BB3-1" value="Customer" style="shape=umlActor;verticalLabelPosition=bottom;verticalAlign=top;html=1;" parent="1" vertex="1">
          <mxGeometry x="120" y="150" width="30" height="60" as="geometry" />
        </mxCell>
        <mxCell id="6ljYarA6fhvYLS2b_BB3-4" value="Manager&lt;div&gt;&lt;br&gt;&lt;/div&gt;" style="shape=umlActor;verticalLabelPosition=bottom;verticalAlign=top;html=1;" parent="1" vertex="1">
          <mxGeometry x="90" y="630" width="30" height="60" as="geometry" />
        </mxCell>
        <mxCell id="6ljYarA6fhvYLS2b_BB3-5" value="Select a car" style="html=1;whiteSpace=wrap;" parent="1" vertex="1">
          <mxGeometry x="250" y="110" width="110" height="50" as="geometry" />
        </mxCell>
        <mxCell id="6ljYarA6fhvYLS2b_BB3-6" value="Add information&lt;div&gt;and make an order&lt;/div&gt;" style="html=1;whiteSpace=wrap;" parent="1" vertex="1">
          <mxGeometry x="250" y="210" width="110" height="50" as="geometry" />
        </mxCell>
        <mxCell id="6ljYarA6fhvYLS2b_BB3-7" value="Pay an order" style="html=1;whiteSpace=wrap;" parent="1" vertex="1">
          <mxGeometry x="250" y="300" width="110" height="50" as="geometry" />
        </mxCell>
        <mxCell id="6ljYarA6fhvYLS2b_BB3-8" value="Accounts" style="html=1;whiteSpace=wrap;" parent="1" vertex="1">
          <mxGeometry x="240" y="550" width="110" height="50" as="geometry" />
        </mxCell>
        <mxCell id="6ljYarA6fhvYLS2b_BB3-9" value="Orders" style="html=1;whiteSpace=wrap;" parent="1" vertex="1">
          <mxGeometry x="240" y="635" width="110" height="50" as="geometry" />
        </mxCell>
        <mxCell id="6ljYarA6fhvYLS2b_BB3-10" value="Cars" style="html=1;whiteSpace=wrap;" parent="1" vertex="1">
          <mxGeometry x="240" y="725" width="110" height="50" as="geometry" />
        </mxCell>
        <mxCell id="6ljYarA6fhvYLS2b_BB3-12" value="Categories" style="html=1;whiteSpace=wrap;" parent="1" vertex="1">
          <mxGeometry x="390" y="670" width="110" height="50" as="geometry" />
        </mxCell>
        <mxCell id="Kk266i6ZGJZ_S-X6U024-2" value="View an order" style="html=1;whiteSpace=wrap;" vertex="1" parent="1">
          <mxGeometry x="250" y="380" width="110" height="50" as="geometry" />
        </mxCell>
        <mxCell id="Kk266i6ZGJZ_S-X6U024-4" value="" style="rounded=0;whiteSpace=wrap;html=1;fillColor=none;" vertex="1" parent="1">
          <mxGeometry x="180" y="540" width="370" height="280" as="geometry" />
        </mxCell>
        <mxCell id="Kk266i6ZGJZ_S-X6U024-6" value="Cancel an order" style="rounded=0;whiteSpace=wrap;html=1;" vertex="1" parent="1">
          <mxGeometry x="385" y="210" width="120" height="60" as="geometry" />
        </mxCell>
      </root>
    </mxGraphModel>
  </diagram>
</mxfile>
